G04 ===== Begin FILE IDENTIFICATION =====*
G04 File Format:  Gerber RS274X*
G04 ===== End FILE IDENTIFICATION =====*
%FSLAX24Y24*%
%MOIN*%
%SFA1.0B1.0*%
%OFA0.0B0.0*%
%ADD10C,0.000984*%
%LNtext*%
%IPPOS*%
%LPD*%
G75*
G36*
G01X9146Y-690D02*
G01Y-399D01*
G01X9328D01*
G01Y-433D01*
G01X9184D01*
G01Y-513D01*
G01X9318D01*
G01Y-547D01*
G01X9184D01*
G01Y-655D01*
G01X9328D01*
G01Y-690D01*
G01X9146D01*
G37*
G36*
G01X9961Y-170D02*
G01X9909Y-160D01*
G01X9868Y-132D01*
G01X9841Y-84D01*
G01X9831Y-19D01*
G01X9840Y44D01*
G01X9867Y92D01*
G01X9909Y121D01*
G01X9962Y132D01*
G01X9989Y129D01*
G01X10013Y124D01*
G01X10032Y117D01*
G01X10052Y107D01*
G01Y60D01*
G01X10049D01*
G01X10036Y72D01*
G01X10016Y85D01*
G01X9992Y95D01*
G01X9962Y99D01*
G01X9926Y91D01*
G01X9897Y68D01*
G01X9878Y31D01*
G01X9871Y-19D01*
G01X9879Y-71D01*
G01X9898Y-107D01*
G01X9927Y-129D01*
G01X9962Y-136D01*
G01X9993Y-132D01*
G01X10018Y-122D01*
G01X10037Y-110D01*
G01X10049Y-99D01*
G01X10052D01*
G01Y-145D01*
G01X10034Y-153D01*
G01X10013Y-161D01*
G01X9990Y-168D01*
G01X9961Y-170D01*
G37*
G36*
G01X8614Y135D02*
G01X8660Y133D01*
G01X8690Y123D01*
G01X8713Y101D01*
G01X8720Y70D01*
G01X8709Y33D01*
G01X8679Y7D01*
G01Y6D01*
G01X8720Y-20D01*
G01X8734Y-66D01*
G01X8726Y-105D01*
G01X8704Y-132D01*
G01X8668Y-150D01*
G01X8620Y-156D01*
G01X8537D01*
G01Y135D01*
G01X8575D01*
G01Y102D01*
G01Y17D01*
G01Y-15D01*
G01Y-123D01*
G01X8607D01*
G01X8647Y-120D01*
G01X8673Y-110D01*
G01X8689Y-93D01*
G01X8694Y-68D01*
G01X8689Y-41D01*
G01X8670Y-23D01*
G01X8650Y-17D01*
G01X8619Y-15D01*
G01X8575D01*
G01Y17D01*
G01X8619D01*
G01X8646Y19D01*
G01X8664Y27D01*
G01X8676Y41D01*
G01X8680Y64D01*
G01X8676Y82D01*
G01X8665Y95D01*
G01X8644Y101D01*
G01X8612Y102D01*
G01X8575D01*
G01Y135D01*
G01X8614D01*
G37*
M02*

