G04 ===== Begin FILE IDENTIFICATION =====*
G04 File Format:  Gerber RS274X*
G04 ===== End FILE IDENTIFICATION =====*
%FSLAX24Y24*%
%MOIN*%
%SFA1.0B1.0*%
%OFA0.0B0.0*%
%ADD10C,0.000984*%
%LNtext*%
%IPPOS*%
%LPD*%
G75*
G36*
G01X9878Y-796D02*
G01Y-505D01*
G01X10060D01*
G01Y-539D01*
G01X9917D01*
G01Y-619D01*
G01X10051D01*
G01Y-654D01*
G01X9917D01*
G01Y-762D01*
G01X10060D01*
G01Y-796D01*
G01X9878D01*
G37*
G36*
G01X10606Y-206D02*
G01X10554Y-197D01*
G01X10512Y-168D01*
G01X10485Y-121D01*
G01X10476Y-56D01*
G01X10485Y8D01*
G01X10512Y55D01*
G01X10553Y85D01*
G01X10607Y95D01*
G01X10634Y93D01*
G01X10658Y87D01*
G01X10677Y80D01*
G01X10697Y70D01*
G01Y24D01*
G01X10693D01*
G01X10680Y35D01*
G01X10661Y48D01*
G01X10637Y58D01*
G01X10606Y62D01*
G01X10571Y54D01*
G01X10542Y32D01*
G01X10523Y-5D01*
G01X10516Y-56D01*
G01X10523Y-107D01*
G01X10543Y-144D01*
G01X10572Y-166D01*
G01X10606Y-173D01*
G01X10637Y-169D01*
G01X10663Y-158D01*
G01X10681Y-146D01*
G01X10694Y-135D01*
G01X10697D01*
G01Y-181D01*
G01X10679Y-190D01*
G01X10658Y-198D01*
G01X10634Y-204D01*
G01X10606Y-206D01*
G37*
G36*
G01X9243Y100D02*
G01X9289Y98D01*
G01X9319Y88D01*
G01X9342Y66D01*
G01X9349Y34D01*
G01X9338Y-3D01*
G01X9308Y-28D01*
G01Y-29D01*
G01X9348Y-55D01*
G01X9363Y-102D01*
G01X9355Y-140D01*
G01X9332Y-167D01*
G01X9297Y-186D01*
G01X9249Y-191D01*
G01X9165D01*
G01Y100D01*
G01X9204D01*
G01Y67D01*
G01Y-18D01*
G01Y-51D01*
G01Y-158D01*
G01X9236D01*
G01X9276Y-156D01*
G01X9301Y-146D01*
G01X9317Y-128D01*
G01X9323Y-103D01*
G01X9318Y-76D01*
G01X9299Y-58D01*
G01X9279Y-52D01*
G01X9248Y-51D01*
G01X9204D01*
G01Y-18D01*
G01X9248D01*
G01X9275Y-16D01*
G01X9293Y-9D01*
G01X9305Y6D01*
G01X9309Y29D01*
G01X9305Y47D01*
G01X9294Y59D01*
G01X9273Y66D01*
G01X9241Y67D01*
G01X9204D01*
G01Y100D01*
G01X9243D01*
G37*
M02*

