G04 ===== Begin FILE IDENTIFICATION =====*
G04 File Format:  Gerber RS274X*
G04 ===== End FILE IDENTIFICATION =====*
%FSLAX24Y24*%
%MOIN*%
%SFA1.0B1.0*%
%OFA0.0B0.0*%
%ADD14C,0.000984*%
%ADD15R,0.113780X0.627559*%
%ADD16R,0.196850X0.113780*%
%ADD17R,0.113780X0.499213*%
%ADD18R,0.562992X0.113780*%
%ADD19R,2.283465X0.113780*%
%ADD20R,0.117551X0.080496*%
%ADD21R,0.115953X0.075449*%
%LNcond*%
%IPPOS*%
%LPD*%
G75*
D14*
G01X25512Y-5748D02*
G01Y-5945D01*
G01X25906D01*
G01Y-5748D01*
G01X25512D01*

G01X25906Y-5945D01*
G01Y-5748D02*
G01X25512Y-5945D01*
D15*
X43290Y3508D03*
Y-3906D03*
G36*
G01X42721Y370D02*
G01Y-768D01*
G01X43859D01*
G01Y370D01*
G01X42721D01*
G37*
D14*
G01X43859Y-396D02*
G01X44056D01*
G01Y-2D01*
G01X43859D01*
G01Y-396D01*

G01X44056Y-2D01*
G01X43859D02*
G01X44056Y-396D01*
D16*
X45040Y-199D03*
D17*
X13688Y2866D03*
Y-3264D03*
G36*
G01X13119Y370D02*
G01Y-768D01*
G01X14257D01*
G01Y370D01*
G01X13119D01*
G37*
D18*
X39906Y-199D03*
D19*
X25674D03*
D14*
G01X12922Y-396D02*
G01X13119D01*
G01Y-2D01*
G01X12922D01*
G01Y-396D01*

G01X13119Y-2D01*
G01X12922D02*
G01X13119Y-396D01*
D16*
X11938Y-199D03*
D20*
X25666Y-6330D03*
X38703Y-9805D03*
D21*
X38706Y-5541D03*
D20*
X32793Y-9830D03*
X34914Y-5539D03*
X30526Y-5508D03*
G36*
G01X14252Y-5758D02*
G01X26260D01*
G01Y-5502D01*
G01X14252D01*
G01Y-5758D01*
G37*
M02*

