G04 ===== Begin FILE IDENTIFICATION =====*
G04 File Format:  Gerber RS274X*
G04 ===== End FILE IDENTIFICATION =====*
%FSLAX24Y24*%
%MOIN*%
%SFA1.0B1.0*%
%OFA0.0B0.0*%
%ADD10C,0.000984*%
%LNtext*%
%IPPOS*%
%LPD*%
G75*
G36*
G01X35997Y-928D02*
G01Y-637D01*
G01X36179D01*
G01Y-671D01*
G01X36036D01*
G01Y-751D01*
G01X36169D01*
G01Y-785D01*
G01X36036D01*
G01Y-893D01*
G01X36179D01*
G01Y-928D01*
G01X35997D01*
G37*
G36*
G01X36813Y-408D02*
G01X36760Y-398D01*
G01X36719Y-370D01*
G01X36692Y-323D01*
G01X36682Y-258D01*
G01X36692Y-194D01*
G01X36719Y-147D01*
G01X36760Y-117D01*
G01X36813Y-107D01*
G01X36841Y-109D01*
G01X36864Y-114D01*
G01X36884Y-122D01*
G01X36903Y-131D01*
G01Y-178D01*
G01X36900D01*
G01X36887Y-167D01*
G01X36867Y-154D01*
G01X36843Y-144D01*
G01X36813Y-140D01*
G01X36778Y-147D01*
G01X36749Y-170D01*
G01X36729Y-207D01*
G01X36723Y-258D01*
G01X36730Y-309D01*
G01X36750Y-345D01*
G01X36778Y-367D01*
G01X36813Y-375D01*
G01X36844Y-370D01*
G01X36869Y-360D01*
G01X36888Y-348D01*
G01X36900Y-337D01*
G01X36903D01*
G01Y-383D01*
G01X36885Y-392D01*
G01X36864Y-400D01*
G01X36841Y-406D01*
G01X36813Y-408D01*
G37*
G36*
G01X35465Y-103D02*
G01X35512Y-105D01*
G01X35541Y-115D01*
G01X35564Y-137D01*
G01X35572Y-169D01*
G01X35561Y-205D01*
G01X35531Y-231D01*
G01Y-232D01*
G01X35571Y-258D01*
G01X35585Y-305D01*
G01X35577Y-343D01*
G01X35555Y-370D01*
G01X35520Y-388D01*
G01X35471Y-394D01*
G01X35388D01*
G01Y-103D01*
G01X35427D01*
G01Y-136D01*
G01Y-221D01*
G01Y-253D01*
G01Y-361D01*
G01X35458D01*
G01X35498Y-358D01*
G01X35524Y-349D01*
G01X35540Y-331D01*
G01X35545Y-306D01*
G01X35540Y-279D01*
G01X35521Y-261D01*
G01X35501Y-255D01*
G01X35471Y-253D01*
G01X35427D01*
G01Y-221D01*
G01X35471D01*
G01X35497Y-219D01*
G01X35515Y-212D01*
G01X35528Y-197D01*
G01X35531Y-174D01*
G01X35528Y-156D01*
G01X35516Y-144D01*
G01X35496Y-137D01*
G01X35464Y-136D01*
G01X35427D01*
G01Y-103D01*
G01X35465D01*
G37*
M02*

