G04 ===== Begin FILE IDENTIFICATION =====*
G04 File Format:  Gerber RS274X*
G04 ===== End FILE IDENTIFICATION =====*
%FSLAX25Y25*%
%MOIN*%
%SFA1.0B1.0*%
%OFA0.0B0.0*%
%ADD10C,0.000984*%
%LNtext*%
%IPPOS*%
%LPD*%
G75*
G36*
G01X381221Y-8865D02*
G01Y-5957D01*
G01X383040D01*
G01Y-6300D01*
G01X381608D01*
G01Y-7097D01*
G01X382942D01*
G01Y-7441D01*
G01X381608D01*
G01Y-8521D01*
G01X383040D01*
G01Y-8865D01*
G01X381221D01*
G37*
G36*
G01X389377Y-3667D02*
G01X388853Y-3571D01*
G01X388439Y-3286D01*
G01X388170Y-2813D01*
G01X388074Y-2163D01*
G01X388167Y-1526D01*
G01X388438Y-1053D01*
G01X388850Y-755D01*
G01X389383Y-653D01*
G01X389657Y-674D01*
G01X389895Y-729D01*
G01X390087Y-802D01*
G01X390281Y-899D01*
G01Y-1366D01*
G01X390250D01*
G01X390119Y-1252D01*
G01X389924Y-1122D01*
G01X389682Y-1022D01*
G01X389379Y-983D01*
G01X389027Y-1059D01*
G01X388736Y-1284D01*
G01X388545Y-1657D01*
G01X388477Y-2163D01*
G01X388549Y-2677D01*
G01X388746Y-3042D01*
G01X389031Y-3259D01*
G01X389379Y-3333D01*
G01X389689Y-3292D01*
G01X389943Y-3188D01*
G01X390129Y-3064D01*
G01X390252Y-2956D01*
G01X390281D01*
G01Y-3417D01*
G01X390101Y-3502D01*
G01X389895Y-3583D01*
G01X389659Y-3645D01*
G01X389377Y-3667D01*
G37*
G36*
G01X375902Y-617D02*
G01X376368Y-637D01*
G01X376665Y-734D01*
G01X376894Y-954D01*
G01X376966Y-1273D01*
G01X376858Y-1640D01*
G01X376558Y-1894D01*
G01Y-1910D01*
G01X376960Y-2166D01*
G01X377103Y-2632D01*
G01X377021Y-3015D01*
G01X376800Y-3288D01*
G01X376449Y-3471D01*
G01X375964Y-3525D01*
G01X375130D01*
G01Y-617D01*
G01X375517D01*
G01Y-947D01*
G01Y-1798D01*
G01Y-2121D01*
G01Y-3195D01*
G01X375831D01*
G01X376232Y-3171D01*
G01X376490Y-3072D01*
G01X376650Y-2899D01*
G01X376701Y-2648D01*
G01X376654Y-2377D01*
G01X376464Y-2197D01*
G01X376264Y-2134D01*
G01X375956Y-2121D01*
G01X375517D01*
G01Y-1798D01*
G01X375956D01*
G01X376224Y-1780D01*
G01X376402Y-1703D01*
G01X376527Y-1554D01*
G01X376564Y-1328D01*
G01X376529Y-1145D01*
G01X376415Y-1023D01*
G01X376206Y-958D01*
G01X375888Y-947D01*
G01X375517D01*
G01Y-617D01*
G01X375902D01*
G37*
M02*

